<?xml version="1.0" encoding="utf-8"?>
<!-- Generator: Adobe Illustrator 22.0.1, SVG Export Plug-In . SVG Version: 6.00 Build 0)  -->
<svg version="1.1" id="Слой_1" xmlns="http://www.w3.org/2000/svg" xmlns:xlink="http://www.w3.org/1999/xlink" x="0px" y="0px"
	 viewBox="0 0 170 170" style="enable-background:new 0 0 170 170;" xml:space="preserve">
<style type="text/css">
	.st0{fill:#666666;}
	.st1{fill:#FF3076;}
</style>
<g>
	<path class="st0" d="M91.6,103.3H49.1c-0.5,0-1-0.4-1-1V75.3c0-0.5,0.4-1,1-1h42.5c0.5,0,1,0.4,1,1v27.1
		C92.6,102.9,92.2,103.3,91.6,103.3z M50.1,101.4h40.6V76.3H50.1V101.4z"/>
	<path class="st0" d="M126.1,82.7h-33c-0.5,0-1-0.4-1-1c0-0.5,0.4-1,1-1h32V43.4H65.6v30.3c0,0.5-0.4,1-1,1c-0.5,0-1-0.4-1-1V42.4
		c0-0.5,0.4-1,1-1h61.4c0.5,0,1,0.4,1,1v39.3C127.1,82.2,126.6,82.7,126.1,82.7z"/>
	<path class="st0" d="M96.1,92c-0.5,0-1-0.4-1-1v-8.7c0-0.5,0.4-1,1-1s1,0.4,1,1V91C97.1,91.6,96.7,92,96.1,92z"/>
	<path class="st0" d="M110.6,93.5H92.7c-0.5,0-1-0.4-1-1c0-0.5,0.4-1,1-1h17.8c0.5,0,1,0.4,1,1C111.5,93,111.1,93.5,110.6,93.5z"/>
	<path class="st0" d="M124.8,128.5h-13.9c-1.6,0-2.8-1.3-2.8-2.8v-24.3c0-1.6,1.3-2.8,2.8-2.8h13.9c1.6,0,2.8,1.3,2.8,2.8v24.3
		C127.6,127.2,126.3,128.5,124.8,128.5z M110.8,100.5c-0.5,0-0.9,0.4-0.9,0.9v24.3c0,0.5,0.4,0.9,0.9,0.9h13.9
		c0.5,0,0.9-0.4,0.9-0.9v-24.3c0-0.5-0.4-0.9-0.9-0.9H110.8z"/>
	<path class="st0" d="M100.1,92c-0.5,0-1-0.4-1-1v-8.7c0-0.5,0.4-1,1-1s1,0.4,1,1v8.7C101.1,91.6,100.7,92,100.1,92z"/>
	<rect x="42.4" y="109.9" class="st1" width="55.9" height="1.9"/>
</g>
</svg>
