<?xml version="1.0" encoding="utf-8"?>
<!-- Generator: Adobe Illustrator 22.0.1, SVG Export Plug-In . SVG Version: 6.00 Build 0)  -->
<svg version="1.1" id="Слой_1" xmlns="http://www.w3.org/2000/svg" xmlns:xlink="http://www.w3.org/1999/xlink" x="0px" y="0px"
	 viewBox="0 0 170 170" style="enable-background:new 0 0 170 170;" xml:space="preserve">
<style type="text/css">
	.st0{fill:#666666;}
	.st1{fill:#FF3076;}
</style>
<g>
	<path class="st0" d="M79.4,122.7c-4.3,0-7.9-3.5-7.9-7.9c0-4.3,3.5-7.9,7.9-7.9c4.3,0,7.9,3.5,7.9,7.9
		C87.3,119.1,83.8,122.7,79.4,122.7z M79.4,108.9c-3.3,0-5.9,2.7-5.9,5.9c0,3.3,2.7,5.9,5.9,5.9c3.3,0,5.9-2.7,5.9-5.9
		C85.4,111.5,82.7,108.9,79.4,108.9z"/>
	<path class="st0" d="M108.1,122.7c-4.3,0-7.9-3.5-7.9-7.9c0-4.3,3.5-7.9,7.9-7.9c4.3,0,7.9,3.5,7.9,7.9
		C116,119.1,112.5,122.7,108.1,122.7z M108.1,108.9c-3.3,0-5.9,2.7-5.9,5.9c0,3.3,2.7,5.9,5.9,5.9s5.9-2.7,5.9-5.9
		C114.1,111.5,111.4,108.9,108.1,108.9z"/>
	<path class="st0" d="M119.1,95.2H73.6c-0.5,0-0.9-0.3-0.9-0.8l-8.7-45.1H42.9c-0.5,0-1-0.4-1-1c0-0.5,0.4-1,1-1h21.9
		c0.5,0,0.9,0.3,0.9,0.8l8.7,45.1h44.7c0.5,0,1,0.4,1,1C120.1,94.7,119.6,95.2,119.1,95.2z"/>
	<path class="st0" d="M124,83.1H72.2c-0.5,0-1-0.4-1-1s0.4-1,1-1H124c0.5,0,1,0.4,1,1S124.6,83.1,124,83.1z"/>
	<path class="st0" d="M127.1,71H70.5c-0.5,0-1-0.4-1-1c0-0.5,0.4-1,1-1h56.6c0.5,0,1,0.4,1,1C128.1,70.6,127.7,71,127.1,71z"/>
	<path class="st1" d="M63.3,95.2c-0.5,0-0.9-0.3-0.9-0.8l-7.3-37.8c-0.1-0.5,0.2-1,0.8-1.1c0.5-0.1,1,0.2,1.1,0.8L64.3,94
		c0.1,0.5-0.2,1-0.8,1.1C63.4,95.2,63.4,95.2,63.3,95.2z"/>
</g>
</svg>
