<?xml version="1.0" encoding="utf-8"?>
<!-- Generator: Adobe Illustrator 22.0.1, SVG Export Plug-In . SVG Version: 6.00 Build 0)  -->
<svg version="1.1" id="Слой_1" xmlns="http://www.w3.org/2000/svg" xmlns:xlink="http://www.w3.org/1999/xlink" x="0px" y="0px"
	 viewBox="0 0 170 170" style="enable-background:new 0 0 170 170;" xml:space="preserve">
<style type="text/css">
	.st0{fill:#666666;}
	.st1{fill:#FF3076;}
</style>
<g>
	<path class="st0" d="M132.2,118.2H47.9c-0.5,0-1-0.4-1-1V43c0-0.5,0.4-1,1-1h84.3c0.5,0,1,0.4,1,1v74.3
		C133.1,117.8,132.7,118.2,132.2,118.2z M48.8,116.3h82.4V44H48.8V116.3z"/>
	<path class="st1" d="M122.1,128H36.9V52.7c0-0.5,0.4-1,1-1s1,0.4,1,1V126h83.3c0.5,0,1,0.4,1,1C123.1,127.5,122.7,128,122.1,128z"
		/>
	<path class="st0" d="M132.2,61.5H47.9c-0.5,0-1-0.4-1-1s0.4-1,1-1h84.3c0.5,0,1,0.4,1,1S132.7,61.5,132.2,61.5z"/>
	<path class="st0" d="M121.5,55c-1.6,0-2.8-1.3-2.8-2.8s1.3-2.8,2.8-2.8c1.6,0,2.8,1.3,2.8,2.8S123.1,55,121.5,55z M121.5,51.2
		c-0.5,0-0.9,0.4-0.9,0.9s0.4,0.9,0.9,0.9s0.9-0.4,0.9-0.9S122,51.2,121.5,51.2z"/>
	<path class="st0" d="M109.5,55c-1.6,0-2.8-1.3-2.8-2.8s1.3-2.8,2.8-2.8c1.6,0,2.8,1.3,2.8,2.8S111.1,55,109.5,55z M109.5,51.2
		c-0.5,0-0.9,0.4-0.9,0.9s0.4,0.9,0.9,0.9c0.5,0,0.9-0.4,0.9-0.9S110,51.2,109.5,51.2z"/>
	<path class="st0" d="M72.3,96.2c-6.4,0-12.2-6.5-15.3-12.1c-2-3.7-1.6-4.4-1.3-4.8l3.3-5.1c1.2-1.8,4,0,7.2,2
		c1.3,0.9,3.4,2.1,4,2.1h38.2c5.1,0,9.1,4,12.4,7.8c1.7,2,2.1,4.3,1.3,6.1c-0.5,1.2-2.1,3.1-6.7,3.2l-21.4,0.3c0,0,0,0,0,0
		c-0.5,0-1-0.4-1-0.9c0-0.5,0.4-1,0.9-1l21.4-0.3c2.6,0,4.4-0.8,5-2.1c0.5-1.1,0.1-2.7-1-4c-3-3.5-6.6-7.2-10.9-7.2H70.1
		c-1.1,0-2.6-0.9-5-2.4c-1.4-0.9-4-2.5-4.7-2.4l-3,4.8c0.2,1.1,2.5,6,6.5,9.8c2,2,5.3,4.3,8.6,4.2l4.8-0.1c0.6,0,1,0.4,1,0.9
		c0,0.5-0.4,1-0.9,1l-4.8,0.1C72.5,96.2,72.4,96.2,72.3,96.2z"/>
	<path class="st0" d="M75.7,108.7c-0.9,0-1.7-0.2-2.4-0.8c-3.4-3.1,2.4-11.4,8.4-19.2c0.3-0.4,0.6-0.8,0.8-1
		c0.2-0.2,0.5-0.4,0.8-0.4h17c0.4,0,0.7,0.2,0.9,0.6c0.1,0.4,0.1,0.8-0.2,1.1l-14.2,13.7C84.5,105,79.3,108.7,75.7,108.7z
		 M83.8,89.3c-0.1,0.2-0.3,0.4-0.5,0.6c-10.1,12.9-9.4,15.9-8.7,16.5c1.5,1.4,7.3-1.7,10.8-5.1L98,89.3H83.8z"/>
</g>
</svg>
