<?xml version="1.0" encoding="utf-8"?>
<!-- Generator: Adobe Illustrator 22.0.1, SVG Export Plug-In . SVG Version: 6.00 Build 0)  -->
<svg version="1.1" id="Слой_1" xmlns="http://www.w3.org/2000/svg" xmlns:xlink="http://www.w3.org/1999/xlink" x="0px" y="0px"
	 viewBox="0 0 170 170" style="enable-background:new 0 0 170 170;" xml:space="preserve">
<style type="text/css">
	.st0{fill:#666666;}
	.st1{fill:#FF3076;}
</style>
<g>
	<path class="st0" d="M90.7,128.1c-23.8,0-43.1-19.3-43.1-43.1S67,41.9,90.7,41.9s43.1,19.3,43.1,43.1S114.5,128.1,90.7,128.1z
		 M90.7,43.8C68,43.8,49.6,62.3,49.6,85s18.5,41.2,41.2,41.2c22.7,0,41.2-18.5,41.2-41.2S113.4,43.8,90.7,43.8z"/>
	<path class="st1" d="M90.3,139.1c-29.8,0-54.1-24.3-54.1-54.1s24.3-54.1,54.1-54.1v1.9c-28.8,0-52.2,23.4-52.2,52.2
		s23.4,52.2,52.2,52.2V139.1z"/>
	<path class="st0" d="M90.7,58.1c-0.5,0-1-0.4-1-1V42.9c0-0.5,0.4-1,1-1c0.5,0,1,0.4,1,1v14.3C91.7,57.7,91.3,58.1,90.7,58.1z"/>
	<path class="st0" d="M62.9,86H48.6c-0.5,0-1-0.4-1-1s0.4-1,1-1h14.3c0.5,0,1,0.4,1,1S63.4,86,62.9,86z"/>
	<path class="st0" d="M90.7,128.1c-0.5,0-1-0.4-1-1v-14.3c0-0.5,0.4-1,1-1c0.5,0,1,0.4,1,1v14.3C91.7,127.7,91.3,128.1,90.7,128.1z"
		/>
	<path class="st0" d="M132.9,86h-14.3c-0.5,0-1-0.4-1-1s0.4-1,1-1h14.3c0.5,0,1,0.4,1,1S133.4,86,132.9,86z"/>
	<path class="st0" d="M112.1,113.8c0,0-0.1,0-0.1,0c-0.5-0.1-0.9-0.5-0.8-1.1c0.3-2.4,0.5-8.2-2.7-11.1c-1.6-1.4-3.5-2.1-5.4-2.7
		c-1.8-0.6-3.7-1.3-5.3-2.7c-3.4-3-3.8-6.7-1.3-10.7c1.9-3,3.1-7,3.1-10.2c0-5.6-3.9-10-8.9-10c-5,0-8.9,4.4-8.9,10
		c0,3.2,1.2,7.2,3.1,10.2c2.5,4,2.1,7.7-1.3,10.7c-1.5,1.4-3.4,2-5.3,2.7c-1.9,0.7-3.8,1.3-5.4,2.7c-3.2,2.9-3,8.7-2.7,11.1
		c0.1,0.5-0.3,1-0.9,1.1c-0.5,0.1-1-0.3-1.1-0.8c-0.3-2.7-0.6-9.2,3.4-12.7c1.9-1.7,4-2.4,6-3.1c1.7-0.6,3.4-1.2,4.6-2.3
		c2.7-2.3,3-5,0.9-8.2c-2.1-3.3-3.4-7.7-3.4-11.2c0-6.7,4.8-11.9,10.8-11.9c6.1,0,10.8,5.2,10.8,11.9c0,3.6-1.3,8-3.4,11.2
		c-2,3.2-1.7,5.9,0.9,8.2c1.3,1.1,2.9,1.7,4.6,2.3c2,0.7,4.2,1.5,6,3.1c3.9,3.5,3.6,10.1,3.3,12.7
		C113,113.4,112.6,113.8,112.1,113.8z"/>
	<path class="st0" d="M62.5,106.2c-0.1,0-0.1,0-0.2,0c-0.5-0.1-0.9-0.6-0.8-1.1c0.6-3.7,1.8-8.3,4.8-11c1.5-1.3,2.8-1.8,4-2.2
		c1-0.4,1.9-0.7,2.9-1.5c2-1.8,2.1-3,0.7-5.4c-1.6-2.6-2.7-6.1-2.7-8.8c0-5.3,3.7-9.5,8.5-9.5c1.2,0,2.4,0.3,3.5,0.8
		c0.5,0.2,0.7,0.8,0.4,1.3c-0.2,0.5-0.8,0.7-1.3,0.4c-0.8-0.4-1.7-0.6-2.7-0.6c-3.7,0-6.6,3.3-6.6,7.5c0,2.5,0.9,5.5,2.4,7.8
		c2,3.1,1.7,5.4-1,7.8c-1.2,1.1-2.4,1.5-3.5,1.9c-1.1,0.4-2.2,0.7-3.4,1.8c-2.6,2.3-3.6,6.5-4.2,9.9
		C63.3,105.9,62.9,106.2,62.5,106.2z"/>
	<path class="st0" d="M119,106.2c-0.5,0-0.9-0.3-0.9-0.8c-0.6-3.4-1.6-7.6-4.2-9.9c-1.2-1.1-2.2-1.4-3.4-1.8
		c-1.1-0.4-2.3-0.8-3.5-1.9c-2.7-2.4-3-4.7-1-7.8c1.4-2.3,2.4-5.4,2.4-7.8c0-4.2-2.9-7.5-6.6-7.5c-0.9,0-1.8,0.2-2.7,0.6
		c-0.5,0.2-1,0-1.3-0.4c-0.2-0.5,0-1.1,0.4-1.3c1.1-0.5,2.3-0.8,3.5-0.8c4.8,0,8.5,4.2,8.5,9.5c0,2.8-1,6.3-2.7,8.8
		c-1.5,2.3-1.3,3.6,0.7,5.4c0.9,0.8,1.8,1.1,2.9,1.5c1.2,0.4,2.6,0.9,4,2.2c3,2.7,4.1,7.3,4.8,11c0.1,0.5-0.3,1-0.8,1.1
		C119.1,106.2,119.1,106.2,119,106.2z"/>
</g>
</svg>
